<svg xmlns="http://www.w3.org/2000/svg" width="48" height="48" viewBox="0 0 48 48">
  <defs>
    <linearGradient id="grad1" x1="0%" y1="0%" x2="100%" y2="100%">
      <stop offset="0%" style="stop-color:#667eea;stop-opacity:1" />
      <stop offset="100%" style="stop-color:#764ba2;stop-opacity:1" />
    </linearGradient>
  </defs>
  <rect width="48" height="48" rx="10" fill="url(#grad1)"/>
  <!-- Brain/Learning Icon -->
  <path d="M24 8C16 8 12 14 12 20c0 4 2 7 5 9v7c0 1 1 2 2 2h10c1 0 2-1 2-2v-7c3-2 5-5 5-9 0-6-4-12-12-12z" fill="white" opacity="0.9"/>
  <!-- Neural connections -->
  <circle cx="18" cy="18" r="2" fill="#667eea"/>
  <circle cx="24" cy="16" r="2" fill="#667eea"/>
  <circle cx="30" cy="18" r="2" fill="#667eea"/>
  <circle cx="20" cy="24" r="1.5" fill="#764ba2"/>
  <circle cx="28" cy="24" r="1.5" fill="#764ba2"/>
  <line x1="18" y1="18" x2="24" y2="16" stroke="#667eea" stroke-width="1"/>
  <line x1="24" y1="16" x2="30" y2="18" stroke="#667eea" stroke-width="1"/>
  <line x1="18" y1="18" x2="20" y2="24" stroke="#764ba2" stroke-width="1"/>
  <line x1="30" y1="18" x2="28" y2="24" stroke="#764ba2" stroke-width="1"/>
  <!-- Lightbulb glow effect -->
  <circle cx="24" cy="20" r="8" fill="white" opacity="0.2"/>
</svg>
