<svg xmlns="http://www.w3.org/2000/svg" width="128" height="128" viewBox="0 0 128 128">
  <defs>
    <linearGradient id="grad1" x1="0%" y1="0%" x2="100%" y2="100%">
      <stop offset="0%" style="stop-color:#667eea;stop-opacity:1" />
      <stop offset="100%" style="stop-color:#764ba2;stop-opacity:1" />
    </linearGradient>
    <filter id="glow">
      <feGaussianBlur stdDeviation="2" result="coloredBlur"/>
      <feMerge>
        <feMergeNode in="coloredBlur"/>
        <feMergeNode in="SourceGraphic"/>
      </feMerge>
    </filter>
  </defs>
  
  <!-- Background -->
  <rect width="128" height="128" rx="24" fill="url(#grad1)"/>
  
  <!-- Brain/Head Shape -->
  <path d="M64 20C40 20 28 38 28 54c0 12 6 22 16 28v18c0 4 3 7 6 7h28c3 0 6-3 6-7V82c10-6 16-16 16-28 0-16-12-34-36-34z" 
        fill="white" opacity="0.95"/>
  
  <!-- Neural Network Nodes -->
  <circle cx="48" cy="48" r="6" fill="#667eea" filter="url(#glow)"/>
  <circle cx="64" cy="42" r="6" fill="#667eea" filter="url(#glow)"/>
  <circle cx="80" cy="48" r="6" fill="#667eea" filter="url(#glow)"/>
  <circle cx="52" cy="64" r="5" fill="#764ba2" filter="url(#glow)"/>
  <circle cx="76" cy="64" r="5" fill="#764ba2" filter="url(#glow)"/>
  <circle cx="64" cy="76" r="4" fill="#9f7aea" filter="url(#glow)"/>
  
  <!-- Neural Connections -->
  <line x1="48" y1="48" x2="64" y2="42" stroke="#667eea" stroke-width="2" opacity="0.7"/>
  <line x1="64" y1="42" x2="80" y2="48" stroke="#667eea" stroke-width="2" opacity="0.7"/>
  <line x1="48" y1="48" x2="52" y2="64" stroke="#764ba2" stroke-width="2" opacity="0.7"/>
  <line x1="80" y1="48" x2="76" y2="64" stroke="#764ba2" stroke-width="2" opacity="0.7"/>
  <line x1="64" y1="42" x2="52" y2="64" stroke="#764ba2" stroke-width="1.5" opacity="0.5"/>
  <line x1="64" y1="42" x2="76" y2="64" stroke="#764ba2" stroke-width="1.5" opacity="0.5"/>
  <line x1="52" y1="64" x2="64" y2="76" stroke="#9f7aea" stroke-width="2" opacity="0.7"/>
  <line x1="76" y1="64" x2="64" y2="76" stroke="#9f7aea" stroke-width="2" opacity="0.7"/>
  
  <!-- Lightbulb Base -->
  <rect x="54" y="92" width="20" height="8" rx="2" fill="#e2e8f0"/>
  <rect x="56" y="98" width="16" height="3" rx="1" fill="#cbd5e0"/>
  
  <!-- Subtle glow around the brain -->
  <circle cx="64" cy="58" r="28" fill="white" opacity="0.1"/>
  
  <!-- AI Spark/Star -->
  <path d="M100 24l2 6 6 2-6 2-2 6-2-6-6-2 6-2z" fill="white" opacity="0.9"/>
  <path d="M28 88l1.5 4 4 1.5-4 1.5-1.5 4-1.5-4-4-1.5 4-1.5z" fill="white" opacity="0.7"/>
</svg>
